Coordinates
version=1
nRows=49
nColumns=12
inDegrees=yes

Units are S.I. units (second, meters, Newtons, ...)
Angles are in degrees

endheader
time	SC_y	SC_z	SC_x	AC_y	AC_z	AC_x	GH_y	GH_z	GH_yy	EL_x	PS_y
       0.0               -56.1          -4.32          36.41          43.07           4.75         -16.26         -64.86          38.23         -92.95          75.48          97.72
   0.00231               -56.1         -4.318          36.41          43.07           4.75         -16.26         -64.86          38.23         -92.92          75.48          97.72
   0.00462              -56.09         -4.315          36.41          43.07          4.751         -16.26         -64.86          38.22          -92.9          75.47          97.72
   0.00693              -56.09         -4.313          36.41          43.06          4.752         -16.26         -64.87          38.21         -92.88          75.46          97.72
  0.009241              -56.09          -4.31          36.41          43.06          4.753         -16.25         -64.87           38.2         -92.85          75.45          97.72
   0.01155              -56.08         -4.307          36.42          43.06          4.754         -16.25         -64.87          38.19         -92.82          75.44          97.72
   0.01386              -56.08         -4.304          36.42          43.06          4.755         -16.25         -64.88          38.18         -92.79          75.43          97.71
   0.01617              -56.07         -4.301          36.42          43.06          4.756         -16.24         -64.88          38.16         -92.76          75.41          97.71
   0.01848              -56.07         -4.297          36.42          43.05          4.757         -16.24         -64.89          38.15         -92.72           75.4          97.71
   0.02079              -56.07         -4.293          36.43          43.05          4.759         -16.23         -64.89          38.14         -92.68          75.39          97.71
    0.0231              -56.06         -4.289          36.43          43.05           4.76         -16.23          -64.9          38.12         -92.64          75.37           97.7
   0.02541              -56.06         -4.285          36.43          43.05          4.761         -16.22          -64.9          38.11          -92.6          75.36           97.7
   0.02772              -56.05          -4.28          36.44          43.04          4.763         -16.22         -64.91          38.09         -92.55          75.34           97.7
   0.03003              -56.04         -4.275          36.44          43.04          4.765         -16.21         -64.91          38.07          -92.5          75.32          97.69
   0.03234              -56.04         -4.269          36.44          43.04          4.766         -16.21         -64.92          38.05         -92.45           75.3          97.69
   0.03465              -56.03         -4.263          36.45          43.03          4.768          -16.2         -64.93          38.03         -92.39          75.28          97.68
   0.03696              -56.02         -4.257          36.45          43.03          4.771         -16.19         -64.94           38.0         -92.33          75.25          97.68
   0.03927              -56.01          -4.25          36.46          43.03          4.773         -16.18         -64.94          37.98         -92.26          75.23          97.68
   0.04158               -56.0         -4.242          36.46          43.02          4.776         -16.17         -64.95          37.95         -92.18           75.2          97.67
   0.04389              -55.99         -4.234          36.47          43.01          4.778         -16.16         -64.96          37.92          -92.1          75.17          97.66
    0.0462              -55.98         -4.224          36.48          43.01          4.782         -16.15         -64.98          37.89         -92.01          75.14          97.66
   0.04851              -55.97         -4.214          36.49           43.0          4.785         -16.14         -64.99          37.85          -91.9           75.1          97.65
   0.05082              -55.96         -4.203          36.49           43.0          4.789         -16.13          -65.0          37.81         -91.79          75.06          97.64
   0.05313              -55.94          -4.19           36.5          42.99          4.793         -16.12         -65.02          37.76         -91.67          75.01          97.63
   0.05544              -55.93         -4.176          36.51          42.98          4.798          -16.1         -65.03          37.71         -91.53          74.96          97.62
   0.05775              -55.91          -4.16          36.53          42.97          4.803         -16.08         -65.05          37.65         -91.38           74.9          97.61
   0.06006              -55.89         -4.143          36.54          42.96          4.809         -16.06         -65.08          37.59         -91.21          74.84           97.6
   0.06237              -55.86         -4.123          36.55          42.95          4.815         -16.04          -65.1          37.52         -91.01          74.77          97.59
   0.06468              -55.84         -4.101          36.57          42.93          4.823         -16.01         -65.13          37.44          -90.8          74.69          97.57
   0.06699              -55.81         -4.076          36.59          42.92          4.831         -15.98         -65.16          37.34         -90.55           74.6          97.55
    0.0693              -55.77         -4.047          36.61           42.9          4.841         -15.95         -65.19          37.24         -90.27          74.49          97.53
   0.07161              -55.73         -4.014          36.64          42.88          4.852         -15.91         -65.23          37.12         -89.94          74.37          97.51
   0.07392              -55.69         -3.976          36.66          42.85          4.864         -15.87         -65.28          36.98         -89.57          74.23          97.48
   0.07623              -55.63         -3.931           36.7          42.83          4.879         -15.82         -65.33          36.82         -89.13          74.07          97.45
   0.07854              -55.57         -3.879          36.74          42.79          4.897         -15.76          -65.4          36.63         -88.62          73.88          97.41
   0.08085               -55.5         -3.818          36.78          42.76          4.917         -15.69         -65.47          36.41         -88.02          73.66          97.37
   0.08316              -55.41         -3.745          36.84          42.71          4.941         -15.61         -65.56          36.14         -87.31          73.39          97.32
   0.08548              -55.31         -3.658           36.9          42.66           4.97         -15.51         -65.67          35.82         -86.45          73.08          97.26
   0.08779              -55.18         -3.553          36.98          42.59          5.005         -15.39          -65.8          35.44         -85.42          72.69          97.18
    0.0901              -55.02         -3.424          37.08          42.51          5.048         -15.24         -65.96          34.97         -84.15          72.23          97.09
   0.09241              -54.83         -3.265           37.2          42.41          5.101         -15.06         -66.15          34.39         -82.59          71.65          96.98
   0.09472               -54.6         -3.067          37.35          42.29          5.168         -14.83         -66.39          33.67         -80.65          70.93          96.84
   0.09703               -54.3         -2.817          37.53          42.13          5.251         -14.55          -66.7          32.76          -78.2          70.02          96.67
   0.09934              -53.92         -2.499          37.77          41.93          5.357         -14.19         -67.09           31.6         -75.08          68.87          96.44
    0.1016              -53.43         -2.093          38.08          41.68          5.492         -13.72         -67.59          30.12          -71.1          67.39          96.16
     0.104              -52.81         -1.571          38.47          41.35          5.666         -13.13         -68.23          28.22         -65.98          65.49          95.79
    0.1063              -52.01        -0.9051          38.97          40.94          5.888         -12.37         -69.04          25.79         -59.44          63.07          95.32
    0.1086              -51.01       -0.06742           39.6          40.41          6.167         -11.41         -70.07          22.74         -51.23          60.03          94.73
    0.1109              -49.78         0.9534          40.37          39.78          6.508         -10.25         -71.32          19.02         -41.21          56.31          94.01
